<svg xmlns="http://www.w3.org/2000/svg" width="36" height="30.859" viewBox="0 0 36 30.859">
  <g id="question_1_" data-name="question (1)" transform="translate(0 -31.617)">
    <path id="Контур_5" data-name="Контур 5" d="M19.277,31.617c-9.236,0-16.723,6.908-16.723,15.429A14.381,14.381,0,0,0,4.1,53.527L.141,60.68a1.128,1.128,0,0,0,1.287,1.635l8.66-2.377a17.656,17.656,0,0,0,9.189,2.537C28.513,62.476,36,55.568,36,47.046S28.513,31.617,19.277,31.617Zm-.028,23.356A1.655,1.655,0,1,1,20.9,53.318,1.657,1.657,0,0,1,19.249,54.973ZM20.983,47.1c-.217.149-.368.258-.449.327v1.73a1.285,1.285,0,0,1-2.57,0V47.293a2.8,2.8,0,0,1,1.569-2.315c.715-.488,1.187-.811,1.187-1.818a1.471,1.471,0,1,0-2.942,0,1.285,1.285,0,0,1-2.57,0,4.04,4.04,0,0,1,8.081,0A4.422,4.422,0,0,1,20.983,47.1Z" fill="#fff"/>
  </g>
</svg>
