<?xml version="1.0" encoding="utf-8"?>
<!-- Generator: Adobe Illustrator 24.1.3, SVG Export Plug-In . SVG Version: 6.00 Build 0) -->
<svg version="1.1" id="Слой_1" xmlns="http://www.w3.org/2000/svg" xmlns:xlink="http://www.w3.org/1999/xlink" x="0px" y="0px" viewBox="0 0 319.1 320.5" style="enable-background:new 0 0 319.1 320.5;" xml:space="preserve">
	<style type="text/css">
		.st0{fill:#FFFFFF;}
		.st1{fill:url(#SVGID_1_);}
		.st2{clip-path:url(#SVGID_3_);}
		.st3{fill:url(#SVGID_4_);}
		.st4{fill:url(#SVGID_5_);}
	</style>
	<g id="Слой_2_1_">
		<g id="Слой_1-2">
			<rect x="107.2" y="2.5" class="st0" width="106.4" height="315.5" />
			<rect x="107.3" y="2.7" transform="matrix(6.123234e-17 -1 1 6.123234e-17 0 321)" class="st0" width="106.4" height="315.5" />
			<g id="Слой_2-2">
				<linearGradient id="SVGID_1_" gradientUnits="userSpaceOnUse" x1="151.8098" y1="54.6399" x2="393.7202" y2="194.3001" gradientTransform="matrix(1 0 0 -1 -113.21 293.79)">
					<stop offset="0" style="stop-color:#BBBBBA" />
					<stop offset="0.5" style="stop-color:#DEDDDC" />
					<stop offset="1" style="stop-color:#ADA29F" />
				</linearGradient>
				<path class="st1" d="M232.1,188.5L232.1,188.5c-0.9,0-1.7-0.5-2.1-1.3L170.7,85.3L114,181.9c-0.4,0.8-1.3,1.2-2.1,1.2l0,0
				c-0.9,0-1.7-0.5-2.2-1.3l-25.3-44.7l-22.9,34.1c-0.5,0.7-1.2,1.1-2.1,1.1H0v-5h58L82.5,131c0.8-1.1,2.3-1.4,3.5-0.7
				c0.3,0.2,0.6,0.5,0.8,0.8l25.2,44.5l56.6-96.5c0.5-0.8,1.3-1.2,2.1-1.2l0,0c0.9,0,1.7,0.5,2.1,1.2l59.3,102.1l8.6-13.7
				c0.5-0.7,1.3-1.2,2.1-1.2h76.2v5h-74.8l-10.1,16C233.7,188.1,232.9,188.5,232.1,188.5z" />
			</g>
			<g>
				<defs>
					<polygon id="SVGID_2_" points="-75.9,169.8 59.4,169.8 84.5,132.4 111.8,180.6 170.7,80.4 232.1,186 242.9,168.9 380.6,168.9 
					286,-9.1 159.6,-28.2 -4.2,8.9 -113.2,132.7 				" />
				</defs>
				<clipPath id="SVGID_3_">
					<use xlink:href="#SVGID_2_" style="overflow:visible;" />
				</clipPath>
				<g class="st2">
					<linearGradient id="SVGID_4_" gradientUnits="userSpaceOnUse" x1="159.56" y1="3.97" x2="159.56" y2="319.5" gradientTransform="matrix(1 0 0 -1 0 322)">
						<stop offset="0" style="stop-color:#05ACD0" />
						<stop offset="0.5" style="stop-color:#0BA8C6" />
						<stop offset="1" style="stop-color:#1999D4" />
					</linearGradient>
					<polygon class="st3" points="211.1,318 109.7,318 109.7,212.5 2.5,212.5 2.5,109.8 109.7,109.8 109.7,2.5 211.1,2.5 
					211.1,109.1 316.6,109.1 316.6,212.1 210.7,212.1 				" />
				</g>
			</g>
			<linearGradient id="SVGID_5_" gradientUnits="userSpaceOnUse" x1="130.3858" y1="50.8323" x2="415.0759" y2="215.1967" gradientTransform="matrix(1 0 0 -1 -113.21 293.79)">
				<stop offset="0" style="stop-color:#BBBBBA" />
				<stop offset="0.5" style="stop-color:#DEDDDC" />
				<stop offset="1" style="stop-color:#ADA29F" />
			</linearGradient>
			<path class="st4" d="M211.1,320.5H109.7c-1.4,0-2.5-1.1-2.5-2.5V215H2.5c-1.4,0-2.5-1.1-2.5-2.5c0,0,0,0,0,0V109.8
			c0-1.4,1.1-2.5,2.5-2.5c0,0,0,0,0,0h104.7V2.5c0-1.4,1.1-2.5,2.5-2.5c0,0,0,0,0,0h101.4c1.4,0,2.5,1.1,2.5,2.5c0,0,0,0,0,0v104.1
			h103c1.4,0,2.5,1.1,2.5,2.5v103.1c0,1.4-1.1,2.5-2.5,2.5H213.2l0.3,103.4C213.6,319.4,212.5,320.5,211.1,320.5
			C211.1,320.5,211.1,320.5,211.1,320.5L211.1,320.5z M112.2,315.5h96.4l-0.4-103.4c0-1.4,1.1-2.5,2.5-2.5h103.4v-98.1h-103
			c-1.4,0-2.5-1.1-2.5-2.5c0,0,0,0,0,0V5h-96.4v104.8c0,1.4-1.1,2.5-2.5,2.5H5V210h104.7c1.4,0,2.5,1.1,2.5,2.5c0,0,0,0,0,0V315.5z" />
		</g>
	</g>
</svg>
